# xmcd
#
# Track frame offsets:
#	150
#	17401
#	34687
#	47521
#	61057
#	73940
#	92165
#	107381
#	120718
#	134432
#
# Disc length: 2041 seconds
#
# Revision: 1
# Processed by: cddbd v1.5.2PL0 Copyright (c) Steve Scherf et al.
# Submitted via: audiograbber 1.83.01
#
DISCID=7d07f70a
DTITLE=Jason and the Punknecks - Love Us or Hate Us
DYEAR=2008
DGENRE=Folk-rock
TTITLE0=Seen This Before
TTITLE1=Doin' Time
TTITLE2=Better Part of Me
TTITLE3=Pucker Up
TTITLE4=Eloped
TTITLE5=Easy Good Time
TTITLE6=All These Years
TTITLE7=Lord Knows
TTITLE8=One Day Baby
TTITLE9=Memphis Train
EXTD=
EXTT0=
EXTT1=
EXTT2=
EXTT3=
EXTT4=
EXTT5=
EXTT6=
EXTT7=
EXTT8=
EXTT9=
PLAYORDER=
